<?xml version="1.0" standalone="no"?>
<!DOCTYPE svg PUBLIC "-//W3C//DTD SVG 20010904//EN"
 "http://www.w3.org/TR/2001/REC-SVG-20010904/DTD/svg10.dtd">
<svg version="1.0" xmlns="http://www.w3.org/2000/svg"
 width="932.000000pt" height="1280.000000pt" viewBox="0 0 932.000000 1280.000000"
 preserveAspectRatio="xMidYMid meet">
<metadata>
Created by potrace 1.15, written by Peter Selinger 2001-2017
</metadata>
<g transform="translate(0.000000,1280.000000) scale(0.100000,-0.100000)"
fill="#04aa6d" stroke="none">
<path d="M4345 12789 c-316 -22 -688 -87 -967 -168 -959 -280 -1783 -838
-2400 -1626 -508 -650 -841 -1456 -942 -2285 -151 -1236 196 -2478 963 -3450
92 -117 252 -299 317 -362 l49 -46 150 143 149 144 -89 93 c-421 437 -755 998
-949 1597 -134 412 -193 764 -203 1211 -12 547 59 1004 234 1505 491 1407
1710 2467 3170 2755 552 108 1114 108 1666 0 763 -151 1482 -519 2055 -1053
790 -736 1256 -1707 1343 -2798 25 -311 -1 -768 -61 -1089 -149 -798 -538
-1560 -1085 -2128 l-89 -93 149 -144 150 -143 49 46 c26 26 92 97 145 157 364
413 636 854 838 1360 525 1310 422 2808 -278 4033 -359 627 -878 1181 -1479
1577 -342 226 -680 393 -1050 520 -591 202 -1224 286 -1835 244z"/>
<path d="M4470 10450 c-1007 -80 -1863 -739 -2195 -1690 -160 -459 -182 -981
-60 -1456 45 -176 91 -299 180 -479 117 -238 248 -432 403 -594 l77 -81 149
145 149 144 -67 72 c-394 417 -602 1033 -545 1615 86 892 717 1630 1578 1849
194 49 281 59 521 59 240 0 327 -10 521 -59 459 -117 875 -393 1160 -772 238
-315 380 -681 418 -1077 57 -582 -151 -1198 -545 -1615 l-67 -72 149 -144 149
-145 77 81 c155 162 286 356 403 594 158 322 235 615 254 967 43 824 -301
1596 -944 2113 -186 150 -479 315 -706 399 -313 115 -728 172 -1059 146z"/>
<path d="M4487 7859 c-80 -283 -327 -1148 -547 -1924 -502 -1766 -983 -3455
-1380 -4850 l-307 -1080 2435 -3 c1339 -1 2437 0 2439 2 3 2 -20 87 -51 188
-30 100 -107 357 -170 571 -64 213 -167 559 -230 770 -63 210 -171 573 -241
807 -183 612 -405 1359 -485 1625 -194 650 -390 1306 -725 2430 -81 270 -177
594 -215 720 -38 127 -134 451 -215 720 -80 270 -149 501 -153 514 -6 19 -43
-98 -155 -490z"/>
</g>
</svg>
